<svg xmlns="http://www.w3.org/2000/svg" version="1.1" xmlns:xlink="http://www.w3.org/1999/xlink" width="2000" height="118" viewBox="0 0 2000 118"><svg xml:space="preserve" width="2000" height="118" data-version="2" data-id="lg_u9bMfcTnTDLz84bIuX" viewBox="0 0 544 118" x="0" y="0"><rect width="100%" height="100%" fill="transparent"></rect><path fill="red" d="M133.455 90.1q-2.67 0-2.67-2.57V58.02h-4.56q-.99 0-1.68-.69t-.69-1.68q0-1.09.74-1.78.74-.7 1.73-.7h4.46v-29.8q0-2.57 2.77-2.57h20.49q5.55 0 9.9 2.18 4.36 2.18 6.88 6.23 2.53 4.06 2.53 9.81 0 5.74-2.48 10.04-2.47 4.31-6.63 6.64-4.16 2.32-9.21 2.32h-18.81v29.31q0 1.19-.69 1.98t-2.08.79m2.77-36.93h19.31q3.46 0 6.23-2.18 2.78-2.17 4.46-5.49 1.68-3.32 1.68-6.68 0-3.37-1.73-6.34-1.73-2.97-4.7-4.85-2.97-1.88-6.93-1.88h-18.32Zm-4.35 35.25q0-1.79 1.78-1.79h10.2q1.78 0 1.78 1.79 0 1.68-1.88 1.68h-10.2q-1.68 0-1.68-1.68m13.26-17.92q.5.69.35 1.38-.15.7-.64 1.09l-9.31 6.54q-1.29.89-2.28-.4-1.09-1.58.3-2.47l9.31-6.54q1.28-.89 2.27.4m0-9.7q.5.69.35 1.38-.15.69-.64 1.09l-9.31 6.53q-1.29.9-2.28-.39-1.09-1.59.3-2.48l9.31-6.53q1.28-.89 2.27.4m-10.59 29.3q-1.78 0-1.78-1.78V55.45q0-1.58 1.78-1.58 1.68 0 1.68 1.68v32.87q0 1.68-1.68 1.68m9.5 0q-1.78 0-1.78-1.78V55.45q0-1.58 1.78-1.58 1.69 0 1.69 1.68v32.87q0 1.68-1.69 1.68"></path><rect width="49.5" height="69.3" x="-24.75" y="-34.65" fill="none" rx="0" ry="0" transform="translate(149.1 55.95)"></rect><path fill="red" d="M182.365 65.45v-.6q0-9 2.67-14.55 2.67-5.54 6.98-8.12 4.31-2.57 9.06-2.57 3.66 0 7.32 1.44 3.67 1.43 6.74 4.45 3.06 3.02 4.9 7.82 1.83 4.8 1.83 11.53h-5.45q0-7.12-2.32-11.53-2.33-4.4-5.84-6.43-3.52-2.03-7.18-2.03-3.57 0-7.08 2.03-3.52 2.03-5.84 6.43-2.33 4.41-2.33 11.53v.6Zm.69 24.65q-2.67 0-2.67-2.57V20.8q0-2.57 2.67-2.57 2.77 0 2.77 2.57v66.73q0 2.57-2.77 2.57m36.04 0q-2.68 0-2.68-2.57V64.85q0-2.57 2.68-2.57 2.77 0 2.77 2.57v22.68q0 2.57-2.77 2.57m-41.78-67.12q-1.19 0-1.88-.7-.6-.59-.6-1.68 0-1.19.6-1.68.69-.69 1.88-.69h5.05q1.09 0 1.68.14.59.15.69.35.4.4.7.89.29.5.29.99-.2 1.29-.89 1.68-.39.7-2.47.7Zm16.23 67.12q-1.68 0-1.68-1.68V52.58q0-1.68 1.68-1.68 1.79 0 1.79 1.58v35.84q0 1.78-1.79 1.78m15.05 0q-1.68 0-1.68-1.68V52.58q0-1.68 1.68-1.68 1.78 0 1.78 1.58v35.84q0 1.78-1.78 1.78m-7.52-45.24q-3.17 0-4.46 1.78-1.28 1.78-1.28 6.24v9.4h-3.47V51.59q0-3.76 2.72-6.19 2.73-2.42 7.58-2.42Zm0 0-.99-1.88q4.95 0 7.62 2.42 2.67 2.43 2.67 6.19v10.69h-3.46v-9.4q0-4.46-1.34-6.24-1.33-1.78-4.5-1.78m-19.6 43.56q0-1.79 1.78-1.79h10.19q1.79 0 1.79 1.79 0 1.68-1.88 1.68h-10.2q-1.68 0-1.68-1.68m25.64 0q0-1.79 1.78-1.79h10.2q1.78 0 1.78 1.79 0 1.68-1.88 1.68h-10.2q-1.68 0-1.68-1.68m-22.77-21.59q-1.79 0-1.79-1.68 0-.59.35-1.19.35-.59 1.34-.59h9.3q1.79 0 1.79 1.68 0 .7-.4 1.24t-1.29.54Zm0 9.71q-1.79 0-1.79-1.69 0-.59.35-1.18.35-.6 1.34-.6h9.3q1.79 0 1.79 1.68 0 .7-.4 1.24-.4.55-1.29.55Zm24.45-9.71q-1.78 0-1.78-1.68 0-.59.34-1.19.35-.59 1.34-.59h9.31q1.78 0 1.78 1.68 0 .7-.4 1.24-.39.54-1.28.54Zm0 9.71q-1.78 0-1.78-1.69 0-.59.34-1.18.35-.6 1.34-.6h9.31q1.78 0 1.78 1.68 0 .7-.4 1.24-.39.55-1.28.55Z"></path><rect width="47.03" height="71.87" x="-23.52" y="-35.94" fill="none" rx="0" ry="0" transform="translate(198.85 54.66)"></rect><path fill="red" d="M254.135 91.09q-4.75 0-9.3-1.49-4.56-1.48-8.27-4.55t-5.94-7.97q-2.23-4.9-2.23-11.73t2.23-11.73q2.23-4.9 5.94-7.97 3.71-3.07 8.27-4.56 4.55-1.48 9.3-1.48 4.75 0 9.31 1.48 4.55 1.49 8.26 4.56 3.72 3.07 5.94 7.97 2.23 4.9 2.23 11.73t-2.23 11.73q-2.22 4.9-5.94 7.97-3.71 3.07-8.26 4.55-4.56 1.49-9.31 1.49m0-4.95q4.95 0 9.6-2.18 4.66-2.18 7.68-6.78 3.02-4.6 3.02-11.83t-3.02-11.83q-3.02-4.6-7.68-6.78-4.65-2.18-9.6-2.18-4.85 0-9.55 2.18-4.7 2.18-7.72 6.78-3.02 4.6-3.02 11.83t3.02 11.83q3.02 4.6 7.72 6.78 4.7 2.18 9.55 2.18m.1 3.56q-3.07 0-6.43-2.47-3.37-2.48-5.65-7.82-2.27-5.35-2.27-14.06 0-6.73 1.38-11.34 1.39-4.6 3.57-7.32 2.17-2.72 4.7-3.91 2.52-1.19 4.7-1.19v2.97q-1.98 0-4.55 2.28-2.58 2.27-4.41 6.88-1.83 4.6-1.83 11.63 0 6.63 1.73 11.29 1.73 4.65 4.26 7.07 2.52 2.43 4.8 2.43Zm0 0v-3.56q2.28 0 4.8-2.43 2.53-2.42 4.26-7.07 1.73-4.66 1.73-11.29 0-7.03-1.83-11.63-1.83-4.61-4.36-6.88-2.52-2.28-4.6-2.28v-2.97q2.28 0 4.75 1.19 2.48 1.19 4.66 3.91 2.17 2.72 3.56 7.32 1.39 4.61 1.39 11.34 0 8.71-2.28 14.06-2.28 5.34-5.59 7.82-3.32 2.47-6.49 2.47m-19.6-24.25q-1.49 1.09-2.38-.3-.39-.49-.44-1.19-.05-.69.74-1.28l7.62-5.35q1.49-.99 2.48.4.39.59.34 1.23-.05.65-.74 1.14Zm.2 9.6q-1.49 1.09-2.38-.3-.4-.49-.44-1.18-.05-.7.74-1.29l7.62-5.35q1.49-.99 2.48.4.39.59.34 1.24-.05.64-.74 1.14Zm33.06-9.6q-1.48 1.09-2.37-.3-.4-.49-.45-1.19-.05-.69.74-1.28l7.63-5.35q1.48-.99 2.47.4.4.59.35 1.23-.05.65-.74 1.14Zm.2 9.6q-1.48 1.09-2.38-.3-.39-.49-.44-1.18-.05-.7.74-1.29l7.62-5.35q1.49-.99 2.48.4.4.59.35 1.24-.05.64-.75 1.14Z"></path><rect width="51.48" height="51.48" x="-25.74" y="-25.74" fill="none" rx="0" ry="0" transform="translate(254.63 65.85)"></rect><path fill="red" d="M302.155 90.1q-3.07 0-5.99-1.39-2.92-1.38-4.8-4.65-1.89-3.27-1.89-8.81V26.74q0-.99.75-1.78.74-.79 2.13-.79 1.18 0 1.98.84.79.84.79 1.73 0 6.73-.05 12.28-.05 5.54-.05 10.74 0 5.19-.05 10.74-.05 5.54-.05 12.27 0 6.93 2.08 9.66 2.08 2.72 5.15 2.72 1.98 0 3.81-1.19t3.12-3.66q1.09-2.08 2.77-2.08.39 0 .99.2 1.58.59 1.58 2.47 0 .7-.29 1.29-2.18 4.45-5.35 6.19-3.17 1.73-6.63 1.73m-18.32-44.55q-2.57 0-2.57-2.48 0-2.47 2.57-2.47h24.95q2.57 0 2.57 2.47 0 2.48-2.57 2.48Zm17.72-3.47q1.69 0 1.69 1.69v31.08q0 1.69-1.69 1.69-1.78 0-1.78-1.59V43.87q0-1.79 1.78-1.79m7.53 38.22v2.57q-1.98 2.08-4.16 1.29t-3.66-3.17q-1.49-2.37-1.49-5.15V65.15h3.47v9.41q0 2.97 1.13 4.75 1.14 1.78 2.58 2.08 1.43.29 2.13-1.09m-14.56-19.8q-1.48 1.09-2.37-.3-.4-.49-.45-1.19-.05-.69.74-1.28l7.63-5.35q1.48-.99 2.47.4.4.59.35 1.23-.05.65-.74 1.14Zm-.19 9.8q-1.49 1.09-2.38-.3-.4-.49-.45-1.19-.05-.69.75-1.28l7.62-5.35q1.48-.99 2.47.4.4.59.35 1.24-.05.64-.74 1.13Z"></path><rect width="33.16" height="65.93" x="-16.58" y="-32.97" fill="none" rx="0" ry="0" transform="translate(298.35 57.63)"></rect><path fill="red" d="M341.655 91.09q-4.75 0-9.31-1.49-4.55-1.48-8.26-4.55-3.72-3.07-5.94-7.97-2.23-4.9-2.23-11.73t2.23-11.73q2.22-4.9 5.94-7.97 3.71-3.07 8.26-4.56 4.56-1.48 9.31-1.48 4.75 0 9.3 1.48 4.56 1.49 8.27 4.56 3.71 3.07 5.94 7.97 2.23 4.9 2.23 11.73t-2.23 11.73q-2.23 4.9-5.94 7.97-3.71 3.07-8.27 4.55-4.55 1.49-9.3 1.49m0-4.95q4.95 0 9.6-2.18 4.65-2.18 7.67-6.78 3.02-4.6 3.02-11.83t-3.02-11.83q-3.02-4.6-7.67-6.78-4.65-2.18-9.6-2.18-4.85 0-9.56 2.18-4.7 2.18-7.72 6.78-3.02 4.6-3.02 11.83t3.02 11.83q3.02 4.6 7.72 6.78 4.71 2.18 9.56 2.18m.1 3.56q-3.07 0-6.44-2.47-3.36-2.48-5.64-7.82-2.28-5.35-2.28-14.06 0-6.73 1.39-11.34 1.38-4.6 3.56-7.32 2.18-2.72 4.7-3.91 2.53-1.19 4.71-1.19v2.97q-1.98 0-4.56 2.28-2.57 2.27-4.4 6.88-1.83 4.6-1.83 11.63 0 6.63 1.73 11.29 1.73 4.65 4.26 7.07 2.52 2.43 4.8 2.43Zm0 0v-3.56q2.27 0 4.8-2.43 2.52-2.42 4.26-7.07 1.73-4.66 1.73-11.29 0-7.03-1.83-11.63-1.84-4.61-4.36-6.88-2.52-2.28-4.6-2.28v-2.97q2.27 0 4.75 1.19 2.47 1.19 4.65 3.91t3.57 7.32q1.38 4.61 1.38 11.34 0 8.71-2.28 14.06-2.27 5.34-5.59 7.82-3.32 2.47-6.48 2.47m-19.61-24.25q-1.48 1.09-2.37-.3-.4-.49-.45-1.19-.05-.69.75-1.28l7.62-5.35q1.48-.99 2.47.4.4.59.35 1.23-.05.65-.74 1.14Zm.2 9.6q-1.48 1.09-2.37-.3-.4-.49-.45-1.18-.05-.7.74-1.29l7.63-5.35q1.48-.99 2.47.4.4.59.35 1.24-.05.64-.74 1.14Zm33.07-9.6q-1.49 1.09-2.38-.3-.39-.49-.44-1.19-.05-.69.74-1.28l7.62-5.35q1.49-.99 2.48.4.39.59.34 1.23-.05.65-.74 1.14Zm.2 9.6q-1.49 1.09-2.38-.3-.4-.49-.44-1.18-.05-.7.74-1.29l7.62-5.35q1.49-.99 2.48.4.39.59.34 1.24-.05.64-.74 1.14Z"></path><rect width="51.48" height="51.48" x="-25.74" y="-25.74" fill="none" rx="0" ry="0" transform="translate(342.15 65.85)"></rect><path fill="red" d="M379.175 90.2q-1.19 0-1.98-.64-.79-.65-.79-2.03V32.09q0-6.74 3.66-10.8 3.66-4.05 10-4.05 2.57 0 4.75.69t4.06 2.57q.49.4.64.89.15.5.25.99 0 .99-.69 1.79-.7.79-1.69.79-.89 0-1.43-.35-.55-.35-1.24-1.04-1.58-1.58-4.65-1.58-3.66 0-5.79 3.31-2.13 3.32-2.13 8.27l-.3 53.96q0 1.38-.84 2.03-.84.64-1.83.64m-8.12-44.65q-2.57 0-2.57-2.48 0-2.47 2.57-2.47h23.07q2.57 0 2.57 2.47 0 2.48-2.57 2.48Zm7.72 25.54q-.99-1.48.4-2.37l7.62-5.35q1.49-.99 2.38.4 1.09 1.48-.3 2.37l-7.62 5.45q-.6.39-1.29.29-.69-.1-1.19-.79m0-9.7q-.99-1.49.4-2.38l7.62-5.34q1.49-.99 2.38.39 1.09 1.49-.3 2.38l-7.62 5.44q-.6.4-1.29.3-.69-.1-1.19-.79m9.9 28.81q-1.68 0-1.68-1.68V44.86q0-1.69 1.68-1.69 1.78 0 1.78 1.59v43.66q0 1.78-1.78 1.78m-11.18-1.78q0-1.79 1.68-1.79h9.6q1.68 0 1.68 1.69 0 1.88-1.58 1.88h-9.7q-.69 0-1.19-.45-.49-.44-.49-1.33"></path><rect width="31.28" height="72.96" x="-15.64" y="-36.48" fill="none" rx="0" ry="0" transform="translate(384.63 54.22)"></rect><path fill="red" d="M406.695 90.1q-2.67 0-2.67-2.57V20.8q0-2.57 2.67-2.57 2.77 0 2.77 2.57v66.73q0 2.57-2.77 2.57m2.67-69.5q-.19 1.29-.89 1.68-.39.7-2.47.7h-5.05q-1.19 0-1.88-.7-.6-.59-.6-1.68 0-1.19.6-1.68.69-.69 1.88-.69h5.05q1.09 0 1.68.14.59.15.69.35.4.4.7.89.29.5.29.99m-10.29 67.02q0-1.08.69-1.68.69-.69 1.88-.69h4.85q1.19 0 1.88.59.7.7.7 1.78 0 1.19-.7 1.89-.69.59-1.88.59h-4.85q-1.19 0-1.88-.69-.69-.6-.69-1.79m15.24 0q0 1.19-.69 1.79-.69.69-1.88.69h-4.85q-1.09 0-1.88-.59-.7-.7-.7-1.89 0-1.08.7-1.78.79-.59 1.88-.59h4.85q1.19 0 1.88.69.69.6.69 1.68m-10.49-32.86q-.69.49-1.34.29-.64-.19-1.14-.79-.39-.69-.29-1.29.1-.59.79-1.08l7.62-5.35q.79-.59 1.44-.3.64.3 1.04.79.49.7.34 1.29-.14.6-.84 1.09Zm0 19.99q-.69.5-1.34.3-.64-.2-1.14-.79-.39-.69-.29-1.29.1-.59.79-1.09l7.62-5.34q.79-.6 1.44-.3.64.3 1.04.79.49.7.34 1.29-.14.59-.84 1.09Zm0-9.99q-.69.49-1.34.29-.64-.2-1.14-.79-.39-.69-.29-1.29.1-.59.79-1.09l7.62-5.34q.79-.6 1.44-.3.64.3 1.04.79.49.7.34 1.29-.14.59-.84 1.09Z"></path><rect width="15.84" height="71.87" x="-7.92" y="-35.94" fill="none" rx="0" ry="0" transform="translate(406.9 54.66)"></rect><path fill="red" d="M442.735 91.09q-4.76 0-9.31-1.49-4.55-1.48-8.27-4.55-3.71-3.07-5.94-7.97-2.22-4.9-2.22-11.73t2.22-11.73q2.23-4.9 5.94-7.97 3.72-3.07 8.27-4.56 4.55-1.48 9.31-1.48 4.75 0 9.3 1.48 4.56 1.49 8.27 4.56 3.71 3.07 5.94 7.97 2.23 4.9 2.23 11.73t-2.23 11.73q-2.23 4.9-5.94 7.97-3.71 3.07-8.27 4.55-4.55 1.49-9.3 1.49m0-4.95q4.95 0 9.6-2.18 4.65-2.18 7.67-6.78 3.02-4.6 3.02-11.83t-3.02-11.83q-3.02-4.6-7.67-6.78-4.65-2.18-9.6-2.18-4.85 0-9.56 2.18-4.7 2.18-7.72 6.78-3.02 4.6-3.02 11.83t3.02 11.83q3.02 4.6 7.72 6.78 4.71 2.18 9.56 2.18m.1 3.56q-3.07 0-6.44-2.47-3.37-2.48-5.64-7.82-2.28-5.35-2.28-14.06 0-6.73 1.39-11.34 1.38-4.6 3.56-7.32 2.18-2.72 4.7-3.91 2.53-1.19 4.71-1.19v2.97q-1.98 0-4.56 2.28-2.57 2.27-4.4 6.88-1.84 4.6-1.84 11.63 0 6.63 1.74 11.29 1.73 4.65 4.25 7.07 2.53 2.43 4.81 2.43Zm0 0v-3.56q2.27 0 4.8-2.43 2.52-2.42 4.25-7.07 1.74-4.66 1.74-11.29 0-7.03-1.83-11.63-1.84-4.61-4.36-6.88-2.53-2.28-4.6-2.28v-2.97q2.27 0 4.75 1.19 2.47 1.19 4.65 3.91t3.56 7.32q1.39 4.61 1.39 11.34 0 8.71-2.28 14.06-2.27 5.34-5.59 7.82-3.32 2.47-6.48 2.47m-19.61-24.25q-1.48 1.09-2.37-.3-.4-.49-.45-1.19-.05-.69.74-1.28l7.63-5.35q1.48-.99 2.47.4.4.59.35 1.23-.05.65-.74 1.14Zm.2 9.6q-1.48 1.09-2.37-.3-.4-.49-.45-1.18-.05-.7.74-1.29l7.63-5.35q1.48-.99 2.47.4.4.59.35 1.24-.05.64-.75 1.14Zm33.07-9.6q-1.49 1.09-2.38-.3-.39-.49-.44-1.19-.05-.69.74-1.28l7.62-5.35q1.49-.99 2.48.4.39.59.34 1.23-.05.65-.74 1.14Zm.2 9.6q-1.49 1.09-2.38-.3-.4-.49-.45-1.18-.05-.7.75-1.29l7.62-5.35q1.48-.99 2.47.4.4.59.35 1.24-.05.64-.74 1.14Z"></path><rect width="51.48" height="51.48" x="-25.74" y="-25.74" fill="none" rx="0" ry="0" transform="translate(443.24 65.85)"></rect><path fill="red" d="M489.955 90.1q-1.58 0-2.82-.54-1.24-.55-1.73-2.03l-15.84-43.37q-.1-.29-.15-.59-.05-.3-.05-.59 0-1.59 1.78-2.18.79-.2 1.09-.2 1.48 0 2.18 1.78l14.85 41.58q.1.4.59.4.5 0 .59-.5l14.76-41.48q.59-1.78 2.27-1.78h.5q.29 0 .59.2 1.49.59 1.49 2.08v.54q0 .35-.2.64l-15.74 43.47q-.5 1.48-1.44 2.03-.94.54-2.72.54m27.32 0q-1.58 0-2.82-.54-1.24-.55-1.73-2.03l-15.84-43.37q-.1-.29-.15-.59-.05-.3-.05-.59 0-1.59 1.78-2.18.8-.2 1.09-.2 1.49 0 2.18 1.78l14.85 41.58q.1.4.59.4.5 0 .6-.5l14.75-41.48q.59-1.78 2.28-1.78h.49q.3 0 .6.2 1.48.59 1.48 2.08v.54q0 .35-.2.64l-15.74 43.47q-.49 1.48-1.43 2.03-.94.54-2.73.54m-46.82-47.72q0-1.78 1.78-1.78h10.29q1.79 0 1.79 1.78 0 1.68-1.88 1.68h-10.3q-1.68 0-1.68-1.68m25.34 36.24q-1.58.49-2.18-1.09l-12.57-34.46q-.69-1.68.59-2.07 2.08-.8 2.68.79l12.57 34.55q.2.69 0 1.34-.2.64-1.09.94m40.79-36.24q0 1.68-1.68 1.68h-10.3q-1.88 0-1.88-1.68 0-1.78 1.78-1.78h10.3q1.78 0 1.78 1.78m-25.35 36.24q-.89-.3-1.08-.94-.2-.65 0-1.34l12.57-34.55q.59-1.59 2.67-.79 1.29.39.6 2.07l-12.58 34.46q-.59 1.58-2.18 1.09m1.29-24.16q0 1.68-1.68 1.68h-15.25q-1.68 0-1.68-1.68 0-1.78 1.58-1.78h15.25q1.78 0 1.78 1.78m-2.18 3.66v-3.36q0-.89.4-1.29t1.29-.4q.99 0 1.38.4.3.3.3 1.19v3.36q0 1.79-1.78 1.79-1.59 0-1.59-1.69m3.37-7.22v3.36q0 .89-.3 1.19-.39.4-1.38.4-.89 0-1.29-.4t-.4-1.29V50.8q0-1.69 1.59-1.69 1.78 0 1.78 1.79m-20.59 7.22v-3.36q0-.89.39-1.29.4-.4 1.29-.4.5 0 .84.1.35.1.55.3.29.3.29 1.19v3.36q0 1.79-1.78 1.79-1.58 0-1.58-1.69m3.36-7.22v3.36q0 .89-.29 1.19-.2.2-.55.3-.34.1-.84.1-.89 0-1.29-.4-.39-.4-.39-1.29V50.8q0-1.69 1.58-1.69 1.78 0 1.78 1.79m-18.71 4.35q-1.48 1.09-2.37-.3-.4-.49-.45-1.18-.05-.7.74-1.29l7.63-5.35q1.48-.99 2.47.4.4.59.35 1.24-.05.64-.74 1.14Zm3.76 9.9q-1.48 1.09-2.37-.3-.4-.49-.45-1.18-.05-.7.75-1.29l7.62-5.35q1.48-.99 2.47.4.4.59.35 1.24-.05.64-.74 1.14Zm2.97 9.31q-1.48 1.09-2.37-.3-.4-.49-.45-1.19-.05-.69.75-1.28l7.62-5.35q1.48-.99 2.47.4.4.59.35 1.23-.05.65-.74 1.14Zm45.15-19.21-7.62-5.34q-.7-.5-.75-1.14-.05-.65.35-1.24.99-1.39 2.47-.4l7.63 5.35q.79.59.74 1.29-.05.69-.45 1.18-.89 1.39-2.37.3m-3.76 9.9-7.63-5.34q-.69-.5-.74-1.14-.05-.65.35-1.24.99-1.39 2.47-.4l7.63 5.35q.79.59.74 1.29-.05.69-.45 1.18-.89 1.39-2.37.3m-2.97 9.31-7.63-5.35q-.69-.49-.74-1.14-.05-.64.35-1.23.99-1.39 2.47-.4l7.63 5.35q.79.59.74 1.28-.05.7-.45 1.19-.89 1.39-2.37.3"></path><rect width="68.01" height="49.63" x="-34.01" y="-24.81" fill="none" rx="0" ry="0" transform="translate(503.87 65.79)"></rect><ellipse fill="#3d9970" rx="140.58" ry="68" transform="rotate(-45 103.81 -45.95)scale(.3799)"></ellipse><ellipse fill="#ffdc00" rx="140.58" ry="68" transform="rotate(-90 61.6 -2.57)scale(.3939)"></ellipse><ellipse fill="#0074d9" rx="140.58" ry="68" transform="rotate(-135 44.09 16.3)scale(.3939)"></ellipse></svg></svg>